<svg width="15" height="15" viewBox="0 0 15 15" fill="none" xmlns="http://www.w3.org/2000/svg">
<rect width="15" height="15" fill="white" fill-opacity="0.01"/>
<circle cx="7.50006" cy="7.50024" r="7.5" fill="#96FD87"/>
<path fill-rule="evenodd" clip-rule="evenodd" d="M5.71935 7.30553C5.6271 7.21002 5.51676 7.13384 5.39475 7.08143C5.27275 7.02902 5.14153 7.00144 5.00875 7.00028C4.87597 6.99913 4.74429 7.02443 4.6214 7.07471C4.4985 7.12499 4.38685 7.19925 4.29295 7.29314C4.19906 7.38703 4.12481 7.49868 4.07453 7.62158C4.02425 7.74448 3.99894 7.87615 4.0001 8.00893C4.00125 8.14171 4.02884 8.27293 4.08125 8.39494C4.13366 8.51694 4.20984 8.62729 4.30535 8.71953L6.30535 10.7195C6.49288 10.907 6.74718 11.0123 7.01235 11.0123C7.27751 11.0123 7.53182 10.907 7.71935 10.7195L11.7193 6.71953C11.8149 6.62729 11.891 6.51694 11.9435 6.39494C11.9959 6.27293 12.0234 6.14171 12.0246 6.00893C12.0258 5.87615 12.0005 5.74448 11.9502 5.62158C11.8999 5.49868 11.8256 5.38703 11.7317 5.29314C11.6379 5.19925 11.5262 5.12499 11.4033 5.07471C11.2804 5.02443 11.1487 4.99913 11.0159 5.00028C10.8832 5.00144 10.7519 5.02902 10.6299 5.08143C10.5079 5.13384 10.3976 5.21002 10.3053 5.30553L7.01235 8.59853L5.71935 7.30553V7.30553Z" fill="#FAFBFC"/>
</svg>
