<svg width="173" height="22" viewBox="0 0 173 22" fill="none" xmlns="http://www.w3.org/2000/svg">
<path opacity="0.9" d="M22.5742 3.56836C22.5742 4.18815 22.3529 4.70833 21.9102 5.12891C21.4896 5.57161 20.9694 5.79297 20.3496 5.79297H7.06836C6.64779 5.8151 6.29362 5.91471 6.00586 6.0918C5.74023 6.24674 5.54102 6.4349 5.4082 6.65625C5.27539 6.85547 5.20898 7.06576 5.20898 7.28711C5.20898 7.50846 5.27539 7.72982 5.4082 7.95117C5.54102 8.15039 5.74023 8.33854 6.00586 8.51562C6.29362 8.67057 6.64779 8.75911 7.06836 8.78125H16.498C18.0475 8.82552 19.3203 9.19076 20.3164 9.87695C21.3346 10.541 22.054 11.3158 22.4746 12.2012C22.9173 13.0645 23.1387 13.9499 23.1387 14.8574C23.1387 15.7428 22.9173 16.6283 22.4746 17.5137C22.0319 18.377 21.3125 19.1517 20.3164 19.8379C19.3203 20.502 18.0475 20.834 16.498 20.834H16.2988C16.166 20.8561 16.0332 20.8672 15.9004 20.8672H3.34961C2.72982 20.8672 2.19857 20.6569 1.75586 20.2363C1.33529 19.7936 1.125 19.2624 1.125 18.6426C1.125 18.0228 1.34635 17.5026 1.78906 17.082C2.20964 16.6393 2.72982 16.418 3.34961 16.418H16.6973C17.1178 16.4401 17.4609 16.3626 17.7266 16.1855C18.0143 16.0085 18.2246 15.8092 18.3574 15.5879C18.4902 15.3444 18.5566 15.1009 18.5566 14.8574C18.5566 14.7025 18.4902 14.4922 18.3574 14.2266C18.2246 13.9388 18.0143 13.7064 17.7266 13.5293C17.4609 13.3522 17.1178 13.2526 16.6973 13.2305H7.26758C5.7181 13.1862 4.43424 12.832 3.41602 12.168C2.41992 11.5039 1.70052 10.7513 1.25781 9.91016C0.83724 9.04688 0.626953 8.17253 0.626953 7.28711C0.626953 6.42383 0.848307 5.57161 1.29102 4.73047C1.73372 3.86719 2.45312 3.10352 3.44922 2.43945C4.44531 1.77539 5.7181 1.42122 7.26758 1.37695H7.4668C7.59961 1.35482 7.73242 1.34375 7.86523 1.34375H20.3496C20.9694 1.34375 21.4896 1.5651 21.9102 2.00781C22.3529 2.42839 22.5742 2.94857 22.5742 3.56836ZM28.402 0.8125C29.0218 0.8125 29.5531 1.02279 29.9958 1.44336C30.4385 1.8418 30.6709 2.35091 30.693 2.9707V3.60156C30.6709 4.50911 30.7262 5.35026 30.8591 6.125C31.014 6.8776 31.3682 7.55273 31.9216 8.15039C32.4749 8.74805 33.1722 9.06901 34.0134 9.11328H43.3434V3.03711C43.3434 2.41732 43.5648 1.9082 44.0075 1.50977C44.4723 1.08919 45.0147 0.878906 45.6345 0.878906C46.9626 0.989583 47.693 1.70898 47.8259 3.03711V10.7402C47.8259 12.5111 47.5824 14.1823 47.0954 15.7539C46.6527 17.1484 45.9222 18.3327 44.904 19.3066C43.9079 20.2585 42.6351 20.7786 41.0856 20.8672H29.1325C28.5348 20.8451 28.0257 20.6348 27.6052 20.2363C27.2067 19.8158 26.9964 19.3066 26.9743 18.709C26.9743 18.0892 27.1735 17.5579 27.572 17.1152C27.9925 16.6725 28.5127 16.4401 29.1325 16.418H39.9567C40.7979 16.3737 41.4951 16.0527 42.0485 15.4551C42.5576 14.9017 42.9007 14.2708 43.0778 13.5625H32.8845C31.335 13.474 30.0511 12.9538 29.0329 12.002C28.0368 11.028 27.3174 9.84375 26.8747 8.44922C26.4541 7.05469 26.2328 5.57161 26.2106 4V2.9707C26.2328 2.37305 26.4541 1.875 26.8747 1.47656C27.2953 1.05599 27.8044 0.834635 28.402 0.8125ZM62.0873 0.447266C63.2383 0.447266 64.3672 0.580078 65.474 0.845703C66.6029 1.11133 67.6765 1.50977 68.6947 2.04102C69.7129 2.55013 70.6094 3.23633 71.3841 4.09961C72.181 4.96289 72.6127 5.99219 72.6791 7.1875V8.58203V19.1738C72.5462 20.502 71.8158 21.2214 70.4877 21.332C69.8679 21.332 69.3255 21.1328 68.8607 20.7344C68.418 20.3138 68.1966 19.7936 68.1966 19.1738V8.2168C68.1524 7.5306 67.8867 6.96615 67.3998 6.52344C66.9349 6.05859 66.4037 5.69336 65.806 5.42773C65.2305 5.16211 64.6218 4.96289 63.9798 4.83008C63.3601 4.69727 62.7292 4.63086 62.0873 4.63086C61.4453 4.63086 60.8034 4.69727 60.1615 4.83008C59.5417 4.96289 58.933 5.16211 58.3353 5.42773C57.7598 5.69336 57.2285 6.05859 56.7416 6.52344C56.2767 6.96615 56.0222 7.5306 55.9779 8.2168V19.1738C55.8672 20.502 55.1478 21.2214 53.8197 21.332C53.1999 21.332 52.6576 21.1328 52.1927 20.7344C51.75 20.3138 51.5287 19.7936 51.5287 19.1738V8.58203V7.1875C51.5951 5.99219 52.0157 4.96289 52.7904 4.09961C53.5651 3.23633 54.4616 2.55013 55.4798 2.04102C56.4981 1.50977 57.5606 1.11133 58.6673 0.845703C59.7962 0.580078 60.9362 0.447266 62.0873 0.447266ZM83.6534 15.7871C83.6534 15.1673 83.8636 14.6471 84.2842 14.2266C84.7269 13.7839 85.2582 13.5625 85.878 13.5625H90.958L90.0948 11.1055C89.7406 10.1979 89.3864 9.3457 89.0323 8.54883C88.7002 7.72982 88.3129 6.98828 87.8702 6.32422C87.4717 5.66016 87.0179 5.30599 86.5088 5.26172C85.9776 5.30599 85.5017 5.66016 85.0811 6.32422C84.6605 6.98828 84.2732 7.72982 83.919 8.54883C83.587 9.3457 83.2439 10.1979 82.8897 11.1055L79.7354 19.7383C79.514 20.2031 79.2263 20.5905 78.8721 20.9004C78.5401 21.1882 78.031 21.332 77.3448 21.332C76.7028 21.332 76.1716 21.1107 75.751 20.668C75.3526 20.2253 75.1755 19.694 75.2198 19.0742C75.2419 18.7865 75.3083 18.5208 75.419 18.2773L79.0713 8.84766C80.0896 6.36849 81.1078 4.36523 82.126 2.83789C83.1221 1.33268 84.583 0.56901 86.5088 0.546875C88.4125 0.56901 89.8623 1.33268 90.8584 2.83789C91.8767 4.32096 92.8949 6.32422 93.9131 8.84766L97.5655 18.2773C97.6761 18.5208 97.7426 18.7865 97.7647 19.0742C97.809 19.694 97.6208 20.2253 97.2002 20.668C96.8018 21.1107 96.2816 21.332 95.6397 21.332C94.9092 21.332 94.3669 21.1882 94.0127 20.9004C93.6807 20.5905 93.404 20.2031 93.1827 19.7383L92.5518 18.0117H85.878C85.2582 18.0117 84.738 17.7904 84.3174 17.3477C83.8747 16.9271 83.6534 16.4069 83.6534 15.7871ZM104.887 19.1738C104.755 20.502 104.024 21.2214 102.696 21.332C102.076 21.332 101.534 21.1328 101.069 20.7344C100.626 20.3138 100.405 19.7936 100.405 19.1738V3.50195C100.427 2.88216 100.66 2.37305 101.102 1.97461C101.545 1.55404 102.076 1.34375 102.696 1.34375H116.641C118.589 1.41016 120.061 1.8418 121.057 2.63867C122.053 3.41341 122.773 4.29883 123.216 5.29492C123.658 6.29102 123.88 7.29818 123.88 8.31641C123.88 9.37891 123.658 10.4082 123.216 11.4043C122.795 12.4004 122.076 13.2969 121.057 14.0938C120.061 14.8685 118.788 15.2448 117.239 15.2227H108.872C108.252 15.2227 107.732 15.0013 107.311 14.5586C106.869 14.138 106.647 13.6178 106.647 12.998C106.647 12.3783 106.857 11.8581 107.278 11.4375C107.721 10.9948 108.252 10.7734 108.872 10.7734H117.438C117.859 10.7734 118.202 10.6406 118.467 10.375C118.755 10.0872 118.966 9.76628 119.098 9.41211C119.231 9.03581 119.298 8.65951 119.298 8.2832C119.298 7.92904 119.231 7.57487 119.098 7.2207C118.966 6.8444 118.755 6.52344 118.467 6.25781C118.202 5.97005 117.859 5.8151 117.438 5.79297H105.751C105.175 5.8151 104.887 6.10286 104.887 6.65625V19.1738ZM148.202 3.56836C148.202 4.18815 147.98 4.70833 147.537 5.12891C147.117 5.57161 146.597 5.79297 145.977 5.79297H132.696C132.275 5.8151 131.921 5.91471 131.633 6.0918C131.368 6.24674 131.168 6.4349 131.036 6.65625C130.903 6.85547 130.836 7.06576 130.836 7.28711C130.836 7.50846 130.903 7.72982 131.036 7.95117C131.168 8.15039 131.368 8.33854 131.633 8.51562C131.921 8.67057 132.275 8.75911 132.696 8.78125H142.125C143.675 8.82552 144.948 9.19076 145.944 9.87695C146.962 10.541 147.681 11.3158 148.102 12.2012C148.545 13.0645 148.766 13.9499 148.766 14.8574C148.766 15.7428 148.545 16.6283 148.102 17.5137C147.659 18.377 146.94 19.1517 145.944 19.8379C144.948 20.502 143.675 20.834 142.125 20.834H141.926C141.793 20.8561 141.661 20.8672 141.528 20.8672H128.977C128.357 20.8672 127.826 20.6569 127.383 20.2363C126.963 19.7936 126.752 19.2624 126.752 18.6426C126.752 18.0228 126.974 17.5026 127.416 17.082C127.837 16.6393 128.357 16.418 128.977 16.418H142.325C142.745 16.4401 143.088 16.3626 143.354 16.1855C143.642 16.0085 143.852 15.8092 143.985 15.5879C144.118 15.3444 144.184 15.1009 144.184 14.8574C144.184 14.7025 144.118 14.4922 143.985 14.2266C143.852 13.9388 143.642 13.7064 143.354 13.5293C143.088 13.3522 142.745 13.2526 142.325 13.2305H132.895C131.345 13.1862 130.062 12.832 129.043 12.168C128.047 11.5039 127.328 10.7513 126.885 9.91016C126.465 9.04688 126.254 8.17253 126.254 7.28711C126.254 6.42383 126.476 5.57161 126.918 4.73047C127.361 3.86719 128.08 3.10352 129.077 2.43945C130.073 1.77539 131.345 1.42122 132.895 1.37695H133.094C133.227 1.35482 133.36 1.34375 133.493 1.34375H145.977C146.597 1.34375 147.117 1.5651 147.537 2.00781C147.98 2.42839 148.202 2.94857 148.202 3.56836ZM157.981 1.34375H159.508H170.797C171.417 1.36589 171.926 1.59831 172.324 2.04102C172.745 2.48372 172.955 3.01497 172.955 3.63477C172.844 4.96289 172.125 5.68229 170.797 5.79297H159.109C158.268 5.83724 157.571 6.1582 157.018 6.75586C156.464 7.35352 156.055 8.03971 155.789 8.81445C155.546 9.56706 155.424 10.3418 155.424 11.1387C155.424 11.9355 155.546 12.7214 155.789 13.4961C156.055 14.2487 156.464 14.9238 157.018 15.5215C157.571 16.1191 158.268 16.4401 159.109 16.4844H170.797C171.417 16.5065 171.926 16.7389 172.324 17.1816C172.745 17.6243 172.955 18.1556 172.955 18.7754C172.933 19.373 172.712 19.8822 172.291 20.3027C171.893 20.7012 171.395 20.9115 170.797 20.9336H158.611H157.981C156.431 20.8451 155.147 20.2585 154.129 19.1738C153.133 18.0671 152.413 16.8164 151.971 15.4219C151.55 14.0273 151.34 12.5996 151.34 11.1387C151.34 9.67773 151.561 8.25 152.004 6.85547C152.447 5.46094 153.166 4.22135 154.162 3.13672C155.158 2.02995 156.431 1.43229 157.981 1.34375ZM172.889 11.0059C172.889 11.6257 172.667 12.1458 172.225 12.5664C171.804 13.0091 171.284 13.2305 170.664 13.2305H160.637C160.017 13.2305 159.486 13.0202 159.043 12.5996C158.622 12.1569 158.412 11.6257 158.412 11.0059C158.412 10.3861 158.622 9.85482 159.043 9.41211C159.486 8.99154 160.017 8.78125 160.637 8.78125H170.664C171.284 8.78125 171.804 9.0026 172.225 9.44531C172.667 9.86589 172.889 10.3861 172.889 11.0059Z" fill="white"/>
</svg>
